<?xml version="1.0" standalone="no"?>
<!DOCTYPE svg PUBLIC "-//W3C//DTD SVG 20010904//EN"
 "http://www.w3.org/TR/2001/REC-SVG-20010904/DTD/svg10.dtd">
<svg version="1.0" xmlns="http://www.w3.org/2000/svg"
 width="160.000000pt" height="160.000000pt" viewBox="0 0 160.000000 160.000000"
 preserveAspectRatio="xMidYMid meet">
<metadata>
Created by potrace 1.16, written by Peter Selinger 2001-2019
</metadata>
<g transform="translate(0.000000,160.000000) scale(0.100000,-0.100000)"
fill="#000000" stroke="none">
<path d="M1150 1585 c-36 -7 -110 -30 -165 -50 -286 -106 -290 -107 -440 -115
-157 -9 -233 -29 -319 -84 -209 -134 -289 -457 -169 -679 56 -103 174 -187
388 -278 202 -85 250 -114 349 -207 102 -96 162 -133 251 -157 80 -20 150 -19
228 5 152 47 270 191 297 362 11 72 9 102 -20 243 -39 193 -35 298 20 511 17
64 30 139 30 168 0 223 -180 336 -450 281z"/>
</g>
</svg>
