<?xml version="1.0" standalone="no"?>
<!DOCTYPE svg PUBLIC "-//W3C//DTD SVG 1.1//EN" "http://www.w3.org/Graphics/SVG/1.1/DTD/svg11.dtd" >
<svg xmlns="http://www.w3.org/2000/svg" xmlns:xlink="http://www.w3.org/1999/xlink" version="1.1">
<metadata>
Created by FontForge 20170731 at Fri Sep 29 09:40:17 2023
 By Aleksey,,,
2010 Kai Bernau and Commercial Type.
</metadata>
<defs>
<font id="LyonDisplayWeb-Medium" horiz-adv-x="339" >
  <font-face 
    font-family="Lyon Display Web Medium"
    font-weight="500"
    font-stretch="normal"
    units-per-em="2048"
    panose-1="2 0 6 3 8 0 0 2 0 4"
    ascent="1638"
    descent="-410"
    x-height="989"
    cap-height="1360"
    bbox="-39 -500 2034 1536"
    underline-thickness="102"
    underline-position="-307"
    unicode-range="U+000D-201D"
  />
<missing-glyph 
 />
    <glyph glyph-name=".notdef" 
 />
    <glyph glyph-name=".null" horiz-adv-x="0" 
 />
    <glyph glyph-name="nonmarkingreturn" unicode="&#xd;" 
 />
    <glyph glyph-name="NULL" horiz-adv-x="0" 
 />
    <glyph glyph-name="NULL" horiz-adv-x="0" 
 />
    <glyph glyph-name="space" unicode=" " 
 />
    <glyph glyph-name="comma" unicode="," horiz-adv-x="550" 
d="M68 -301q194 133 194 266q0 61 -36 104q-36 44 -95 60q-6 31 1 60q8 31 25 54t46 38q27 14 65 14q34 0 65 -15q32 -15 56 -44q24 -28 39 -69q14 -38 14 -89q0 -133 -86 -233q-84 -97 -252 -197z" />
    <glyph glyph-name="hyphen" unicode="-" horiz-adv-x="761" 
d="M115 645h532v-158h-532v158z" />
    <glyph glyph-name="period" unicode="." horiz-adv-x="516" 
d="M262 -23q-59 0 -107 46q-46 45 -46 106q0 64 46 109q47 45 107 45q64 0 109 -45t45 -109q0 -61 -45 -106q-46 -46 -109 -46z" />
    <glyph glyph-name="zero" unicode="0" horiz-adv-x="1275" 
d="M588 997q-104 0 -164 -94q-59 -93 -59 -268q0 -102 19 -204q20 -109 59 -192q41 -88 103 -144t148 -56q104 0 161 97q56 96 56 280q0 111 -24 216q-24 103 -68 186q-44 82 -102 130q-59 49 -129 49zM643 -35q-123 0 -228 41q-101 40 -177 114q-75 73 -115 173
q-41 102 -41 221q0 115 45 217t121 178q78 78 177 120q103 44 212 44q123 0 226 -42t177 -116q75 -75 115 -174q41 -102 41 -217t-44 -218q-42 -99 -120 -177q-77 -77 -176 -120q-102 -44 -213 -44z" />
    <glyph glyph-name="one" unicode="1" horiz-adv-x="827" 
d="M580 100l215 -34v-66h-709v66l229 32v789h-249v65l505 109h9v-961z" />
    <glyph glyph-name="two" unicode="2" horiz-adv-x="954" 
d="M315 199h590v-199h-835v68l118 108q100 100 160 164q69 74 114 133q44 58 68 114q23 54 23 105q0 89 -52 144t-136 55q-71 0 -121 -37q-54 -39 -101 -104l-51 24q49 137 146 221q95 82 235 82q146 0 233 -81t87 -208q0 -63 -26 -124q-25 -58 -72 -116q-48 -59 -109 -114
q-64 -58 -140 -119z" />
    <glyph glyph-name="three" unicode="3" horiz-adv-x="917" 
d="M260 -424q-47 0 -92 12q-43 11 -80 34q-34 21 -56 52t-22 68q0 47 35 85t94 42q1 -2 11.5 -16l19.5 -26q25 -36 50 -67q12 -16 53 -66q25 -32 38 -44q133 6 211 87t78 216q0 65 -27 122t-77 98q-51 42 -127 66q-73 23 -172 23v105l71 14q153 67 219 146q68 82 68 171
q0 95 -56 147t-139 52q-76 0 -129 -39t-96 -106l-55 24q22 67 56 119t83 95q44 38 108 64q57 23 132 23q79 0 139 -22q59 -22 104 -62q43 -39 66 -92q23 -54 23 -115q0 -62 -23 -114t-60 -92t-85 -74q-46 -33 -97 -62l-57 -32v-4q73 -4 141 -30q65 -25 120 -70
q52 -44 84 -108q32 -66 32 -147q0 -105 -54 -194q-53 -87 -140 -151q-85 -63 -188 -97q-105 -35 -204 -35z" />
    <glyph glyph-name="four" unicode="4" horiz-adv-x="1218" 
d="M672 35h-627v102l797 928l76 -6v-848h272v-176h-272v-430h-246v430zM672 211v553l-467 -553h467z" />
    <glyph glyph-name="five" unicode="5" horiz-adv-x="821" 
d="M420 100q0 64 -18 119q-18 57 -55 111q-35 51 -96 111q-59 57 -138 120l159 481h443v-225h-447l-16 -49q111 -75 188 -141q78 -67 132 -137q53 -70 77 -141q25 -75 25 -159q0 -135 -60 -240q-62 -108 -151 -187q-90 -79 -207 -138q-118 -59 -225 -98l-23 49q52 26 131 77
q72 46 134 110q62 63 105 148q42 83 42 189z" />
    <glyph glyph-name="six" unicode="6" horiz-adv-x="1224" 
d="M1153 1409q-108 -47 -202 -102q-104 -60 -199 -136q-102 -82 -178 -167q-79 -90 -132 -201q58 42 127 68t133 26q91 0 170 -32q81 -33 136 -88q57 -57 90 -136q32 -77 32 -178q0 -108 -44 -201q-45 -94 -115 -160q-72 -68 -166 -105q-96 -38 -195 -38q-106 0 -199 36
q-96 37 -164 104q-72 71 -112 169q-41 102 -41 228q0 122 42 233q41 108 116 209q72 97 173 181q102 85 215 151q120 70 242 118q130 51 253 80zM563 788q-44 0 -78 -11q-41 -13 -65 -27q-41 -114 -41 -232q0 -124 23 -212q24 -91 63 -151q41 -63 90 -92q51 -30 104 -30
q99 0 151 84q52 83 52 227q0 90 -21 171q-20 78 -61 141q-40 62 -94 97t-123 35z" />
    <glyph glyph-name="seven" unicode="7" horiz-adv-x="1042" 
d="M92 -367l711 1166h-725v243h932v-14l-645 -1155l-154 -297z" />
    <glyph glyph-name="eight" unicode="8" horiz-adv-x="1116" 
d="M78 299q0 72 31 128q31 55 76 96q49 44 103 74q65 36 109 56q-56 34 -116 79q-49 38 -81 81q-33 45 -47 92q-16 53 -16 111q0 74 34 142q36 71 95 122q62 53 149 86t191 33q89 0 164 -26t126 -67q53 -42 80 -98q28 -58 28 -114q0 -68 -30 -120q-28 -49 -74 -92
q-41 -38 -95 -70q-44 -26 -94 -50q173 -96 251 -193q76 -95 76 -215q0 -90 -41 -164q-40 -73 -109 -124q-72 -53 -160 -79q-95 -28 -189 -28q-95 0 -183 25q-82 24 -146 69q-62 44 -97 108t-35 138zM449 623q-67 -63 -97 -128q-30 -66 -30 -153q0 -64 18 -121
q17 -55 53 -100q35 -43 84 -69q49 -25 109 -25q105 0 157 64q54 66 54 153q0 106 -71 180q-72 75 -187 143zM362 1130q0 -88 46 -152t143 -120l104 -63q54 56 88 120q33 63 33 142q0 71 -19 122q-20 53 -52 87q-33 35 -73 51q-39 16 -79 16q-78 0 -134 -52q-57 -53 -57 -151
z" />
    <glyph glyph-name="nine" unicode="9" horiz-adv-x="1210" 
d="M82 -375q263 119 440 266q181 151 260 342q-58 -43 -127 -68q-67 -24 -133 -24q-90 0 -171 32q-77 30 -137 89q-58 56 -91 138q-33 81 -33 180q0 104 42 194q42 91 113 157q70 66 164 105q93 39 195 39q103 0 199 -38q94 -37 165 -107q70 -68 112 -171q42 -102 42 -227
q0 -200 -92 -360q-93 -161 -238 -281q-143 -118 -329 -202q-178 -80 -363 -125zM666 248q80 0 135 39q37 105 37 231q0 115 -23 207q-23 94 -59 152q-38 63 -86 93q-49 31 -103 31q-93 0 -150 -79q-57 -80 -57 -234q0 -89 23 -170q23 -83 62 -140q41 -61 97 -95
q58 -35 124 -35z" />
    <glyph glyph-name="A" unicode="A" horiz-adv-x="1400" 
d="M-12 59l143 37l485 1274l74 16l90 19l494 -1313l139 -33v-59h-612v59l162 35l-132 365h-469l-129 -355l234 -45v-59h-479v59zM399 563h396l-197 549z" />
    <glyph glyph-name="B" unicode="B" horiz-adv-x="1300" 
d="M61 59l158 39v1164l-158 38v60l537 2q154 0 266 -22q107 -21 169 -61t89 -95q27 -56 27 -121q0 -71 -32 -126q-30 -52 -85 -94q-53 -41 -124 -65q-70 -24 -150 -39v-4q105 -5 189 -26q88 -22 156 -67q65 -43 104 -111q38 -67 38 -154q0 -191 -160 -286q-159 -95 -458 -93
l-566 2v59zM500 692v-524q23 -44 72 -72q52 -30 118 -30q124 0 191 70t67 206q0 74 -24 135q-23 58 -66 108q-39 45 -95 73q-57 28 -114 34h-149zM500 754q193 12 283 79q89 66 89 195q0 132 -99 201t-273 69v-544z" />
    <glyph glyph-name="C" unicode="C" horiz-adv-x="1474" 
d="M838 -41q-195 0 -334 59q-144 61 -234 157q-93 99 -137 221q-45 124 -45 251q0 158 64 297q64 138 174 238t258 157q150 58 313 58q133 0 241 -31q100 -29 195 -76l6 -373h-59l-131 295q-62 51 -131 80q-74 31 -170 31q-93 0 -172 -43q-80 -44 -138 -121
q-60 -79 -92 -187q-32 -106 -32 -243q0 -169 39 -300q39 -132 104 -217q66 -87 155 -131q90 -44 187 -44q87 0 149 28q60 27 99 60l192 330h62l-70 -377q-135 -60 -240 -88q-118 -31 -253 -31z" />
    <glyph glyph-name="D" unicode="D" horiz-adv-x="1574" 
d="M500 137q35 -35 98 -53q61 -18 131 -16q101 1 187 47q87 46 146 124q60 79 94 186q34 106 34 234q0 164 -54 287q-54 122 -149 204q-95 81 -220 120q-127 39 -267 35v-1168zM61 61l158 37v1162l-158 40v60l648 4q172 -4 316 -51q143 -46 249 -131q105 -84 162 -204
t57 -269q0 -160 -61 -289q-62 -132 -180 -226q-122 -97 -286 -148q-166 -52 -384 -50l-521 4v61z" />
    <glyph glyph-name="E" unicode="E" horiz-adv-x="1267" 
d="M502 662v-531q40 -49 123 -55h307l217 364h63l-94 -440h-1057v59l158 39v1159l-158 43v60h918l164 4v-387h-62l-123 309h-456v-543h246l65 209h59v-489h-63l-61 199h-246z" />
    <glyph glyph-name="F" unicode="F" horiz-adv-x="1189" 
d="M502 649v-551l211 -30v-68h-652v61l158 37v1159l-158 43v60h895l172 4v-385h-63l-121 305h-442v-555h258l69 211h58v-491h-60l-67 200h-258z" />
    <glyph glyph-name="G" unicode="G" horiz-adv-x="1552" 
d="M858 -41q-205 0 -347 59q-146 61 -238 157q-94 99 -137 221q-44 126 -44 251q0 159 69 295q69 137 183 239q112 100 267 158q156 58 321 58q138 0 246 -30q106 -29 192 -71l10 -372h-55l-158 303q-68 48 -128 68q-66 22 -134 22q-110 0 -200 -45q-91 -45 -153 -127
t-97 -196q-35 -116 -35 -251q0 -169 42 -292q42 -124 111 -203q70 -81 161 -118q93 -38 190 -38q73 0 118 11q52 13 84 28v418l-231 33v71h608v-65l-102 -27v-426l-72 -29q-20 -9 -86 -32q-59 -21 -113 -34q-68 -17 -130 -26q-66 -10 -142 -10z" />
    <glyph glyph-name="H" unicode="H" horiz-adv-x="1622" 
d="M954 59l166 39v561h-618v-561l166 -39v-59h-607v59l158 39v1162l-158 40v60h607v-60l-166 -40v-517h618v517l-166 40v60h607v-60l-158 -40v-1162l158 -39v-59h-607v59z" />
    <glyph glyph-name="I" unicode="I" horiz-adv-x="722" 
d="M61 59l158 39v1162l-158 40v60h598v-60l-157 -40v-1162l157 -39v-59h-598v59z" />
    <glyph glyph-name="J" unicode="J" horiz-adv-x="731" 
d="M516 141q0 -123 -28 -226q-27 -100 -90 -173q-64 -74 -164 -120q-101 -46 -250 -64l-13 47q82 37 134 82q54 46 80 100q28 57 38 125q10 66 10 158v1190l-178 40v60h619v-60l-158 -40v-1119z" />
    <glyph glyph-name="K" unicode="K" horiz-adv-x="1443" 
d="M61 59l158 39v1162l-158 40v60h607v-60l-166 -40v-1162l166 -39v-59h-607v59zM532 666v10l545 584l-188 40v60h467v-60l-164 -43l-430 -444l555 -725l129 -29v-59h-406z" />
    <glyph glyph-name="L" unicode="L" horiz-adv-x="1234" 
d="M502 131q41 -51 125 -53h291l223 424h63l-98 -502h-1045v61l158 37v1159l-158 43v60h619v-60l-178 -40v-1129z" />
    <glyph glyph-name="M" unicode="M" horiz-adv-x="1855" 
d="M49 59l160 39l57 1157l-162 45v60h467l381 -899l340 854l13 45h450v-60l-158 -38l52 -1164l159 -39v-59h-622v59l180 39l-37 1098l-379 -954l-73 -189h-43l-72 187l-414 942l-41 -1078l225 -43v-61h-483v59z" />
    <glyph glyph-name="N" unicode="N" horiz-adv-x="1490" 
d="M1200 -25l-883 1108l7 -977l196 -45v-61h-448v61l151 39v1092q-29 34 -66 60q-38 26 -79 38l-35 13v57h414l745 -940l-6 831l-195 49v60h445v-60l-152 -43v-1056l4 -213z" />
    <glyph glyph-name="O" unicode="O" horiz-adv-x="1617" 
d="M840 33q98 0 169 46q73 47 120 128q49 83 72 192q24 111 24 238q0 131 -33 255q-33 125 -91 220q-59 97 -142 154t-181 57q-97 0 -169 -45q-73 -46 -121 -125t-72 -189q-25 -114 -25 -239q0 -124 31 -253q29 -119 88 -222q56 -97 141 -158q83 -59 189 -59zM809 1397
q161 0 296 -56q137 -57 229 -149q98 -98 149 -220q53 -127 53 -267q0 -176 -61 -313q-62 -139 -163 -234q-104 -98 -234 -148q-132 -51 -273 -51q-144 0 -276 50q-125 47 -230 143q-100 91 -159 224q-58 131 -58 298q0 162 60 295t161 228q102 96 233 148t273 52z" />
    <glyph glyph-name="P" unicode="P" horiz-adv-x="1196" 
d="M590 647q134 17 219 96q86 80 86 215q0 61 -22 122q-21 58 -68 105t-122 77t-181 36v-1200l196 -37v-61h-637v61l158 37v1162l-158 40v60h504q135 0 251 -25q113 -24 190 -72q77 -47 118 -116q41 -68 41 -154q0 -97 -49 -171q-49 -75 -130 -127q-81 -53 -184 -81
t-212 -30v63z" />
    <glyph glyph-name="Q" unicode="Q" horiz-adv-x="1617" 
d="M809 1397q161 0 296 -56q136 -57 229 -148q98 -96 149 -218q53 -126 53 -264q0 -139 -42 -255q-41 -113 -115 -207q-71 -90 -170 -154q-98 -63 -208 -93q10 -8 72.5 -53.5t94.5 -69.5q74 -55 161 -104q79 -45 161 -72q81 -27 169 -27q102 0 189 29q85 28 157 84l29 -35
q-13 -13 -67 -63q-40 -37 -100 -70q-55 -30 -145 -56q-84 -24 -200 -24q-135 0 -249 37q-122 40 -224 99q-112 66 -220 147q-84 64 -235 180q-105 29 -200 91q-93 60 -163 147q-68 85 -109 196q-40 110 -40 242q0 160 60 292q59 130 161 226q100 94 233 147q131 52 273 52z
M840 41q97 0 169 45t120 125t72 190q24 111 24 242q0 133 -33 256q-34 125 -91 218q-58 94 -142 152q-81 56 -181 56q-96 0 -169 -44q-74 -44 -121 -123q-48 -80 -72 -188q-25 -114 -25 -241q0 -133 30 -258q30 -126 87 -220q58 -96 140 -153t192 -57z" />
    <glyph glyph-name="R" unicode="R" horiz-adv-x="1392" 
d="M61 59l158 39v1164l-158 38v60l521 4q156 0 278 -25q117 -24 192 -69q74 -45 109 -108q35 -64 35 -136q0 -126 -82 -208q-84 -84 -223 -130v-8l371 -586l135 -35v-59h-393l-308 489q-4 7 -12.5 20.5t-12.5 19.5q-18 28 -26 40q-15 23 -27 45h-118v-516l155 -39v-59h-594
v59zM500 690h162q116 18 188 97t72 190q0 71 -31 133q-28 57 -86 102q-55 43 -133 67t-172 24v-613z" />
    <glyph glyph-name="S" unicode="S" horiz-adv-x="1107" 
d="M88 451h55l150 -334q38 -29 93 -52q57 -24 140 -24q115 0 186 68q70 67 70 178q0 43 -10 77q-10 33 -35 68q-25 34 -67 63q-40 28 -111 56l-110 45q-170 68 -248 164q-76 94 -76 229q0 79 35 155t100 132t160 91q93 34 213 34q95 0 185 -31q83 -29 147 -59l8 -340h-58
l-127 293q-28 26 -70 46q-41 19 -104 19q-58 0 -99 -17q-47 -20 -76 -47q-32 -30 -48 -70q-16 -39 -16 -85q0 -50 13 -85t41 -66q24 -27 73 -56q45 -27 110 -55l123 -53q86 -38 150 -82q56 -38 95 -85q34 -41 50 -96q14 -48 14 -108q0 -106 -47 -192q-45 -83 -123 -144
q-76 -59 -172 -91q-98 -32 -196 -32q-123 0 -222 32q-96 31 -169 66z" />
    <glyph glyph-name="T" unicode="T" horiz-adv-x="1302" 
d="M1096 1360l153 10l4 -409h-57l-121 317h-282v-1180l192 -39v-59h-670v59l195 39v1180h-283l-121 -317h-57l4 409l154 -10h889z" />
    <glyph glyph-name="U" unicode="U" horiz-adv-x="1509" 
d="M752 -43q-282 0 -418 145q-137 146 -137 414v741l-158 43v60h631v-60l-185 -43v-712q0 -103 21 -187q21 -85 62 -143t107 -92q65 -33 154 -33q180 0 275 107q94 106 100 311l-2 737l-225 55v60h493v-60l-157 -47v-710q0 -145 -40 -253q-41 -111 -114 -184
q-73 -74 -177 -111q-105 -38 -230 -38z" />
    <glyph glyph-name="V" unicode="V" horiz-adv-x="1327" 
d="M98 1262l-104 38v60h579v-60l-167 -40l358 -988l356 975l-209 51v62h424v-60l-114 -47l-492 -1278h-133z" />
    <glyph glyph-name="W" unicode="W" horiz-adv-x="1916" 
d="M965 848l-314 -866h-145l-406 1280l-106 36v62h549v-60l-148 -38l289 -969l238 684l-95 285l-120 38v60h575v-62l-162 -36l299 -947l287 930l-205 53v62h422v-60l-113 -47l-413 -1271h-146z" />
    <glyph glyph-name="X" unicode="X" horiz-adv-x="1390" 
d="M152 96l417 563l-385 601l-143 40v60h629v-60l-160 -40l266 -429h4l297 416l-188 51v62h459v-60l-146 -43l-373 -509l420 -650l142 -37v-61h-627v61l158 37l-299 482h-5l-331 -478l166 -41v-61h-449v61z" />
    <glyph glyph-name="Y" unicode="Y" horiz-adv-x="1306" 
d="M799 598v-500l162 -39v-59h-609v59l164 39v451l-401 719l-113 32v60h604v-60l-176 -38l313 -603l332 594l-201 47v60h431v-60l-121 -43z" />
    <glyph glyph-name="Z" unicode="Z" horiz-adv-x="1314" 
d="M57 55l774 1221h-548l-142 -326h-57l10 418l178 -8h922v-12l-809 -1262h633l209 377h63l-88 -463h-1145v55z" />
    <glyph glyph-name="a" unicode="a" horiz-adv-x="1019" 
d="M324 -31q-51 0 -99 17t-83 49q-36 33 -57 79q-22 49 -22 105q0 124 87 191q82 64 260 108l198 49v138q-4 102 -49 164q-45 63 -127 63q-34 0 -61 -9q-24 -8 -43 -22l-9 -225q-28 -9 -50 -13q-36 -6 -62 -6q-53 0 -85 27t-32 76q0 43 36 88q38 47 98 83q65 39 145 62
q86 25 174 25q160 0 242 -74q81 -74 81 -237v-545q0 -40 15 -54q16 -14 55 -14h88v-41q-38 -21 -82 -39q-26 -12 -77 -27q-42 -12 -79 -12q-162 0 -170 164h-10q-23 -29 -52 -61q-30 -34 -61 -55q-35 -24 -75 -39t-94 -15zM463 123q48 0 84 23q35 22 61 55v305l-135 -45
q-86 -29 -122 -74t-36 -104q0 -66 38 -113t110 -47z" />
    <glyph glyph-name="b" unicode="b" horiz-adv-x="1150" 
d="M471 -33q-70 0 -147 16q-75 16 -125 37l-74 33v1264l-127 65v31l385 115v-670q24 26 51 50q29 26 71 51q40 24 89 40q51 17 106 17q73 0 142 -27q71 -28 125 -83q54 -56 89 -143q34 -86 34 -208q0 -123 -56 -232t-143 -187q-88 -79 -199 -124t-221 -45zM541 872
q-57 0 -95 -19q-39 -19 -63 -42v-661q22 -36 64 -65q43 -30 120 -30q53 0 101 25q46 24 82 75q33 48 55 124q20 70 20 172q0 97 -23 172q-24 78 -64 133q-42 57 -91 86q-51 30 -106 30z" />
    <glyph glyph-name="c" unicode="c" horiz-adv-x="995" 
d="M528 -29q-97 0 -184 35q-82 33 -148 102q-63 66 -99 161t-36 216t45 220q43 95 119 168q74 71 168 110t193 39q70 0 134 -18q61 -17 113 -51q48 -31 76 -73q29 -43 29 -92q0 -59 -41 -92q-39 -32 -106 -32q-23 0 -42 3q-20 3 -24 7l-59 223q-20 20 -54 37q-28 14 -75 14
q-52 0 -95 -24q-42 -23 -73 -68q-31 -44 -48 -104q-18 -62 -18 -136q0 -107 29 -192q28 -83 77 -141q50 -59 112 -88q67 -31 136 -31q49 0 93 12q36 10 78 31q36 18 62 38q24 18 40 36l31 -31q-21 -34 -64 -87q-37 -45 -92 -91q-52 -43 -122 -72t-155 -29z" />
    <glyph glyph-name="d" unicode="d" horiz-adv-x="1189" 
d="M608 1430l416 100v-1411l129 -35v-47l-356 -64l-23 136q-28 -30 -53 -50q-29 -23 -68 -45q-31 -18 -81 -33q-45 -14 -93 -14q-95 0 -174 38q-77 37 -132 104q-55 68 -83 152q-29 89 -29 185q0 126 50 231t131 177q86 76 186 115q106 41 215 41q22 0 59 -5q18 -2 64 -14
v332l-158 74v33zM621 115q41 0 79 15t66 36v649q-24 40 -72 79q-47 38 -129 38q-47 0 -92 -21t-79 -65q-32 -42 -54 -117q-21 -72 -21 -174q0 -81 20 -163q19 -79 58 -140t95 -99t129 -38z" />
    <glyph glyph-name="e" unicode="e" horiz-adv-x="1024" 
d="M520 -29q-108 0 -194 42t-145 112q-59 69 -89 162q-31 95 -31 194q0 113 42 212q43 101 111 172q70 73 158 115q89 42 181 42q179 0 277 -108q98 -109 122 -312h-659v-18q0 -99 29 -178q30 -81 77 -133q51 -56 115 -82q66 -27 139 -27q49 0 86 11q47 14 77 29
q39 20 66 37q24 16 52 38l33 -31q-33 -46 -75 -96t-96 -90q-51 -38 -122 -65q-69 -26 -154 -26zM492 942q-76 0 -128 -69q-52 -68 -67 -203h381q-15 124 -60 198t-126 74z" />
    <glyph glyph-name="f" unicode="f" horiz-adv-x="696" 
d="M47 57l125 35v793h-147v63l149 47q7 123 52 226q43 99 111 170q66 69 149 107q84 38 171 38q59 0 107 -14q52 -15 92 -39q41 -24 66 -60q24 -35 24 -75q0 -43 -17 -67q-18 -25 -46 -40q-26 -14 -65 -17q-36 -3 -70 3l-48 190q-45 45 -108 45q-32 0 -62 -15
q-31 -16 -53 -49q-22 -34 -37 -90q-14 -52 -12 -139l2 -180h270v-96h-268v-801l156 -35v-57h-541v57z" />
    <glyph glyph-name="g" unicode="g" horiz-adv-x="1073" 
d="M815 887l-2 -6q42 -39 72 -93q28 -50 28 -116q0 -74 -31 -136q-32 -64 -88 -108q-58 -46 -134 -71q-75 -25 -164 -25q-108 0 -187 33q-16 -19 -28 -39q-11 -19 -11 -41q0 -31 24 -51q23 -18 75 -23l409 -21q136 -6 202 -69q67 -64 67 -160q0 -89 -53 -172
q-52 -81 -139 -143q-87 -61 -203 -99q-111 -36 -240 -36q-182 0 -280 64q-99 65 -99 181q0 78 56 134q57 57 144 94v10q-59 10 -105 52t-46 114q0 58 45 114q44 54 123 115v4q-73 43 -117 113q-43 68 -43 162q0 80 33 144q33 65 88 111t130 70q78 25 159 25q38 0 65 -4
q44 -7 61 -10t61 -16q39 -11 71 -21l303 30v-125zM307 -27q-27 -30 -44 -62q-19 -35 -19 -87q0 -99 79 -154t216 -55q87 0 149 21q59 20 100 55t58 70q18 37 18 71q0 46 -30 76t-80 41zM330 739q0 -79 14 -138q15 -63 40 -107q27 -47 61 -70q37 -25 79 -25q65 0 108 61
q42 60 42 167q0 78 -17 141q-17 62 -43 103q-29 45 -62 64q-36 21 -75 21q-72 0 -109 -59q-38 -61 -38 -158z" />
    <glyph glyph-name="h" unicode="h" horiz-adv-x="1212" 
d="M688 57l117 35v561q-5 91 -46 147t-134 54q-58 0 -111 -28q-51 -27 -80 -50v-684l119 -35v-57h-504v57l125 35v1211l-121 71v35l381 121v-692q19 19 59 54t80 59q45 27 99 47t110 20q136 0 208 -75q73 -76 73 -255v-596l129 -37v-55h-504v57z" />
    <glyph glyph-name="i" unicode="i" horiz-adv-x="589" 
d="M41 57l129 35v707l-125 82v32l385 105v-926l135 -35v-57h-524v57zM293 1217q-59 0 -105 44q-45 43 -45 105q0 59 45 104q46 46 105 46q28 0 57 -13q27 -12 48 -33q24 -24 34 -47q12 -27 12 -57q0 -62 -46 -105q-47 -44 -105 -44z" />
    <glyph glyph-name="j" unicode="j" horiz-adv-x="579" 
d="M-39 -451q57 36 98 75q39 37 63 92q22 50 35 129q11 71 13 184v770l-123 82v32l381 105v-905q0 -143 -15 -245q-15 -100 -85 -173q-83 -86 -180 -125q-91 -36 -175 -59zM295 1217q-62 0 -106 44t-44 105q0 58 44 104t106 46q58 0 104 -46q45 -45 45 -104q0 -62 -45 -105
q-46 -44 -104 -44z" />
    <glyph glyph-name="k" unicode="k" horiz-adv-x="1138" 
d="M174 1303l-121 71v35l381 121v-1438l119 -35v-57h-504v57l125 35v1211zM979 -29q-78 0 -132 31q-52 30 -93 86l-305 430l374 356l-153 62v53h442v-49l-145 -51l-303 -262l475 -607q-15 -10 -47 -24q-20 -9 -51 -18q-25 -7 -62 -7z" />
    <glyph glyph-name="l" unicode="l" horiz-adv-x="598" 
d="M45 57l129 35v1211l-121 71v35l381 121v-1438l135 -35v-57h-524v57z" />
    <glyph glyph-name="m" unicode="m" horiz-adv-x="1835" 
d="M1311 57l114 35v561q-5 91 -46 146q-42 55 -134 55q-58 0 -109 -28t-79 -50v-684l117 -37v-55h-494v57l117 35v561q-5 91 -46 146q-42 55 -135 55q-58 0 -109 -28q-50 -27 -81 -52v-682l119 -35v-57h-504v57l125 35v707l-125 78v30l346 113h10l15 -191h4q32 32 56 54
q33 30 84 62q49 30 103 51q58 22 117 22q110 0 175 -44q64 -43 87 -147h6q10 10 56 54q32 31 82 63q49 32 104 52q60 22 119 22q136 0 208 -75q73 -76 73 -255v-596l129 -37v-55h-504v57z" />
    <glyph glyph-name="n" unicode="n" horiz-adv-x="1206" 
d="M41 57l125 35v707l-125 78v30l346 113h10l15 -191h4q32 32 56 54q33 30 84 62q49 30 103 51q58 22 117 22q136 0 208 -75q73 -76 73 -255v-596l127 -37v-55h-504v57l117 35v561q-5 91 -46 147t-135 54q-57 0 -110 -28q-51 -27 -80 -50v-684l119 -35v-57h-504v57z" />
    <glyph glyph-name="o" unicode="o" horiz-adv-x="1177" 
d="M555 950q-61 0 -100 -32q-43 -35 -66 -85q-24 -53 -36 -118q-11 -61 -11 -133q0 -106 17 -198q18 -96 54 -173t88 -123q53 -47 122 -47q99 0 156 103q57 104 57 272q0 111 -22 215q-21 100 -58 169t-88 110q-50 40 -113 40zM590 -33q-126 0 -225 42q-98 42 -165 113
q-68 73 -102 163q-35 93 -35 190q0 114 41 214q40 99 113 173q72 74 167 116q94 42 206 42q118 0 213 -37q100 -39 166 -102q69 -66 107 -158q38 -93 38 -205q0 -115 -41 -217q-40 -100 -111 -175q-70 -74 -166 -117q-94 -42 -206 -42z" />
    <glyph glyph-name="p" unicode="p" horiz-adv-x="1189" 
d="M25 -412l137 37v1174l-127 78v30l354 113h10l9 -191h2q19 29 48 59q34 36 69 59q43 29 91 47q52 20 117 20q73 0 143 -27q72 -28 126 -83q54 -56 89 -143q33 -83 33 -206q0 -131 -52 -236q-52 -106 -136 -182q-83 -76 -189 -118q-105 -42 -212 -42q-24 0 -62 4
q-36 4 -53 7v-359l215 -41v-57h-612v57zM584 862q-91 0 -162 -71v-656q28 -31 71 -55q45 -25 107 -25q109 0 186 100q76 98 76 298q0 93 -21 170q-20 73 -60 129q-38 54 -89 82q-50 28 -108 28z" />
    <glyph glyph-name="q" unicode="q" horiz-adv-x="1169" 
d="M555 -416l211 45v471q-46 -46 -119 -90q-71 -43 -168 -43q-95 0 -173 38q-76 37 -131 103q-54 65 -84 151q-30 87 -30 187q0 126 51 234q49 103 130 177q81 73 178 113q98 40 196 40q79 0 136 -24q59 -25 96 -52l170 86h10v-1393l133 -39v-57h-606v53zM625 117
q45 0 77 14q40 17 64 35v651q-11 20 -27 38q-14 17 -41 37q-21 16 -57 29q-30 11 -76 11q-45 0 -90 -20t-78 -65q-34 -46 -55 -121q-20 -71 -20 -183q0 -82 19 -157q20 -77 58 -136q37 -57 96 -96q56 -37 130 -37z" />
    <glyph glyph-name="r" unicode="r" horiz-adv-x="819" 
d="M41 57l125 35v707l-125 78v30l350 113h10l11 -268h8l26 53q33 62 62 104q31 44 57 66q29 25 59 35q29 10 64 10q54 0 95 -34q42 -35 42 -95q0 -122 -139 -152l-127 76q-31 -12 -70 -53q-41 -44 -63 -109v-561l170 -35v-57h-555v57z" />
    <glyph glyph-name="s" unicode="s" horiz-adv-x="888" 
d="M377 -33q-87 0 -159 21q-78 23 -132 47l-12 313h49l117 -250q23 -23 60 -41q38 -18 87 -18q87 0 137 48q49 48 49 118q0 60 -32 99q-33 40 -111 69l-135 51q-105 39 -157 107t-52 174q0 67 31 129q29 59 86 100q54 40 132 64q77 24 167 24q73 0 142 -18q63 -17 124 -46
l-2 -278h-45l-105 219q-24 21 -59 36t-78 15q-73 0 -117 -44q-43 -43 -43 -105q0 -66 39 -102q38 -35 111 -64l109 -43q123 -49 181 -110q56 -59 56 -165q0 -77 -36 -142q-36 -64 -95 -110q-60 -47 -139 -72q-81 -26 -168 -26z" />
    <glyph glyph-name="t" unicode="t" horiz-adv-x="720" 
d="M399 -27q-134 0 -191 71q-56 69 -54 194l6 643h-152v67l152 47l211 254h43v-260h288v-112h-288v-654q17 -68 61 -93q46 -26 109 -26q45 0 84 11q31 9 41 12l12 -47q-12 -9 -43 -28q-21 -13 -70 -35q-32 -14 -93 -30q-54 -14 -116 -14z" />
    <glyph glyph-name="u" unicode="u" horiz-adv-x="1202" 
d="M778 141q-26 -29 -58 -57q-38 -33 -77 -56q-41 -24 -93 -43q-50 -18 -108 -18q-129 0 -210 78q-80 77 -80 242v559l-127 55v39l385 66v-666q0 -209 182 -209q58 0 106 23q49 24 76 45v651l-139 51v41l399 68v-889l137 -43v-47l-370 -58z" />
    <glyph glyph-name="v" unicode="v" horiz-adv-x="995" 
d="M442 -33l-362 932l-107 33v57h521v-57l-134 -33l207 -594l17 -55h4l20 57l207 586l-137 41v55h344v-57l-113 -33l-358 -932h-109z" />
    <glyph glyph-name="w" unicode="w" horiz-adv-x="1546" 
d="M1153 324q4 -7 6 -19q1 -9 6 -20q4 -10 6 -23h5q1 4 2.5 12t1.5 11q5 24 10 41l166 563l-152 45v55h367v-57l-121 -35l-299 -928h-129l-231 615q-6 9 -8 19q-3 14 -7 22q-5 12 -6 26h-4q-7 -23 -8 -26q-5 -11 -6 -22q-1 -9 -7 -19l-221 -615h-121l-311 930l-117 33v57
h537v-57l-137 -33l168 -567q4 -18 4 -21q1 -11 6 -22q5 -12 6 -27h4q1 2 3.5 12t4.5 15q4 17 15 43l231 667h86z" />
    <glyph glyph-name="x" unicode="x" horiz-adv-x="1062" 
d="M938 92l113 -37v-55h-498v57l94 35l-182 295h-4l-197 -291l105 -41v-55h-353v55l131 39l275 363l-285 448l-104 31v53h497v-53l-96 -33l162 -266h4l174 260l-102 39v53h323v-53l-108 -33l-250 -334z" />
    <glyph glyph-name="y" unicode="y" horiz-adv-x="1007" 
d="M694 934v55h320v-57l-94 -33l-465 -1210q-35 -88 -87 -138q-52 -51 -135 -51q-58 0 -101 41q-42 41 -42 103q0 60 42 101q41 40 99 40q53 0 82 -27q36 -34 58 -63l6 -8l90 231l-387 987l-86 27v57h479v-57l-108 -31l231 -647l229 639z" />
    <glyph glyph-name="z" unicode="z" horiz-adv-x="989" 
d="M61 0v51l543 860h-340l-114 -268h-54v365l164 -19h674v-8l-572 -907h355l151 299h52l-35 -377l-178 4h-646z" />
    <glyph glyph-name="quoteleft" unicode="&#x2018;" horiz-adv-x="563" 
d="M426 1462q-73 -46 -111 -98q-41 -56 -41 -115t45 -91t105 -42q10 -76 -27 -121t-106 -45q-29 0 -60 13q-29 12 -51 36q-21 23 -37 62q-14 35 -14 88q0 55 23 109q24 56 59 98q40 48 86 83q49 37 102 66z" />
    <glyph glyph-name="quoteright" unicode="&#x2019;" horiz-adv-x="563" 
d="M135 993q69 45 112 100q42 54 42 113t-45 92q-44 32 -105 43q-11 74 27 119t106 45q60 0 110 -47t50 -151q0 -57 -21 -110q-20 -50 -59 -97q-40 -48 -86 -83q-54 -41 -102 -67z" />
    <glyph glyph-name="quotedblleft" unicode="&#x201c;" horiz-adv-x="966" 
d="M426 1462q-73 -46 -111 -98q-41 -56 -41 -115t45 -91t105 -42q10 -76 -27 -121t-106 -45q-29 0 -60 13q-29 12 -51 36q-21 23 -37 62q-14 35 -14 88q0 55 23 109q24 56 59 98q40 48 86 83q49 37 102 66zM836 1462q-73 -46 -111 -98q-41 -56 -41 -115t45 -91t105 -42
q10 -76 -27 -121t-107 -45q-28 0 -59 13q-29 12 -51 36q-21 23 -37 62q-14 35 -14 88q0 58 22 109q23 54 60 98q40 48 86 83q49 37 102 66z" />
    <glyph glyph-name="quotedblright" unicode="&#x201d;" horiz-adv-x="966" 
d="M135 993q69 45 112 100q42 54 42 113t-45 92q-44 32 -105 43q-11 74 27 119t106 45q60 0 110 -47t50 -151q0 -57 -21 -110q-20 -50 -59 -97q-40 -48 -86 -83q-54 -41 -102 -67zM545 993q67 44 111 100q42 54 42 113t-45 92q-44 33 -104 43q-11 75 26 119q37 45 107 45
q60 0 110 -47t50 -151q0 -55 -22 -110q-21 -53 -58 -97q-40 -48 -86 -83q-52 -39 -103 -67z" />
    </font>
</defs>
</svg>
